<mxfile host="app.diagrams.net" modified="2023-07-22T08:20:03.408Z" agent="5.0 (Windows NT 10.0; Win64; x64) AppleWebKit/537.36 (KHTML, like Gecko) Chrome/114.0.0.0 Safari/537.36" version="20.7.4" etag="yIV1R024C_HUJtobIY8n" type="github">
  <diagram id="2DUUnCYvBqpXvS4ZBxQc" name="Recurrent Neural Network (RNN)">
    <mxGraphModel dx="2150" dy="770" grid="1" gridSize="10" guides="1" tooltips="1" connect="1" arrows="1" fold="1" page="1" pageScale="1" pageWidth="827" pageHeight="1169" math="0" shadow="0">
      <root>
        <mxCell id="0" />
        <mxCell id="1" parent="0" />
        <mxCell id="FcZPNLN2SZ12-Trmu3FX-275" style="edgeStyle=orthogonalEdgeStyle;rounded=0;orthogonalLoop=1;jettySize=auto;html=1;fontSize=17;strokeWidth=5;" edge="1" parent="1" source="FcZPNLN2SZ12-Trmu3FX-272">
          <mxGeometry relative="1" as="geometry">
            <mxPoint x="855" y="1120" as="targetPoint" />
          </mxGeometry>
        </mxCell>
        <mxCell id="FcZPNLN2SZ12-Trmu3FX-272" value="" style="rounded=1;whiteSpace=wrap;html=1;gradientColor=none;fillColor=none;dashed=1;" vertex="1" parent="1">
          <mxGeometry x="630" y="580" width="450" height="470" as="geometry" />
        </mxCell>
        <mxCell id="FcZPNLN2SZ12-Trmu3FX-245" value="" style="group" vertex="1" connectable="0" parent="1">
          <mxGeometry x="100" y="860.6899999999999" width="399" height="139.5" as="geometry" />
        </mxCell>
        <mxCell id="FcZPNLN2SZ12-Trmu3FX-216" value="" style="shape=cube;whiteSpace=wrap;html=1;boundedLbl=1;backgroundOutline=1;darkOpacity=0.05;darkOpacity2=0.1;size=110;direction=east;flipH=0;fillColor=#ffe6cc;strokeColor=#d79b00;rotation=90;" vertex="1" parent="FcZPNLN2SZ12-Trmu3FX-245">
          <mxGeometry x="138.75" y="-120.75" width="121.5" height="399" as="geometry" />
        </mxCell>
        <mxCell id="FcZPNLN2SZ12-Trmu3FX-217" value="" style="shape=cube;whiteSpace=wrap;html=1;boundedLbl=1;backgroundOutline=1;darkOpacity=0.05;darkOpacity2=0.1;size=110;direction=east;flipH=0;fillColor=#e1d5e7;strokeColor=#9673a6;rotation=90;" vertex="1" parent="FcZPNLN2SZ12-Trmu3FX-245">
          <mxGeometry x="138.75" y="-138.75" width="121.5" height="399" as="geometry" />
        </mxCell>
        <mxCell id="FcZPNLN2SZ12-Trmu3FX-127" value="" style="shape=cube;whiteSpace=wrap;html=1;boundedLbl=1;backgroundOutline=1;darkOpacity=0.05;darkOpacity2=0.1;size=70;direction=east;flipH=1;fillColor=#f8cecc;strokeColor=#b85450;" vertex="1" parent="1">
          <mxGeometry x="121" y="186" width="80" height="240" as="geometry" />
        </mxCell>
        <mxCell id="FcZPNLN2SZ12-Trmu3FX-130" value="" style="shape=cube;whiteSpace=wrap;html=1;boundedLbl=1;backgroundOutline=1;darkOpacity=0.05;darkOpacity2=0.1;size=40;direction=east;flipH=1;fillColor=#f8cecc;strokeColor=#b85450;" vertex="1" parent="1">
          <mxGeometry x="191" y="232.25" width="50" height="133.75" as="geometry" />
        </mxCell>
        <mxCell id="FcZPNLN2SZ12-Trmu3FX-240" value="" style="group" vertex="1" connectable="0" parent="1">
          <mxGeometry x="140" y="834.75" width="276.5" height="96" as="geometry" />
        </mxCell>
        <mxCell id="FcZPNLN2SZ12-Trmu3FX-241" value="" style="shape=cube;whiteSpace=wrap;html=1;boundedLbl=1;backgroundOutline=1;darkOpacity=0.05;darkOpacity2=0.1;size=70;direction=east;flipH=0;fillColor=#ffe6cc;strokeColor=#d79b00;rotation=90;" vertex="1" parent="FcZPNLN2SZ12-Trmu3FX-240">
          <mxGeometry x="98.25" y="-82.25" width="80" height="276.5" as="geometry" />
        </mxCell>
        <mxCell id="FcZPNLN2SZ12-Trmu3FX-242" value="" style="shape=cube;whiteSpace=wrap;html=1;boundedLbl=1;backgroundOutline=1;darkOpacity=0.05;darkOpacity2=0.1;size=70;direction=east;flipH=0;fillColor=#e1d5e7;strokeColor=#9673a6;rotation=90;" vertex="1" parent="FcZPNLN2SZ12-Trmu3FX-240">
          <mxGeometry x="98.25" y="-98.25" width="80" height="276.5" as="geometry" />
        </mxCell>
        <mxCell id="FcZPNLN2SZ12-Trmu3FX-133" value="" style="shape=cube;whiteSpace=wrap;html=1;boundedLbl=1;backgroundOutline=1;darkOpacity=0.05;darkOpacity2=0.1;size=40;direction=east;flipH=1;fillColor=#ffe6cc;strokeColor=#d79b00;" vertex="1" parent="1">
          <mxGeometry x="242" y="232.25" width="50" height="133.75" as="geometry" />
        </mxCell>
        <mxCell id="FcZPNLN2SZ12-Trmu3FX-134" value="" style="shape=cube;whiteSpace=wrap;html=1;boundedLbl=1;backgroundOutline=1;darkOpacity=0.05;darkOpacity2=0.1;size=20;direction=east;flipH=1;fillColor=#f8cecc;strokeColor=#b85450;" vertex="1" parent="1">
          <mxGeometry x="275" y="262.56" width="40" height="73.13" as="geometry" />
        </mxCell>
        <mxCell id="FcZPNLN2SZ12-Trmu3FX-135" value="" style="shape=cube;whiteSpace=wrap;html=1;boundedLbl=1;backgroundOutline=1;darkOpacity=0.05;darkOpacity2=0.1;size=20;direction=east;flipH=1;fillColor=#ffe6cc;strokeColor=#d79b00;" vertex="1" parent="1">
          <mxGeometry x="301" y="262.56" width="40" height="73.13" as="geometry" />
        </mxCell>
        <mxCell id="FcZPNLN2SZ12-Trmu3FX-136" value="" style="shape=cube;whiteSpace=wrap;html=1;boundedLbl=1;backgroundOutline=1;darkOpacity=0.05;darkOpacity2=0.1;size=20;direction=east;flipH=1;fillColor=#ffe6cc;strokeColor=#d79b00;" vertex="1" parent="1">
          <mxGeometry x="326" y="262.56" width="40" height="73.13" as="geometry" />
        </mxCell>
        <mxCell id="FcZPNLN2SZ12-Trmu3FX-137" value="" style="shape=cube;whiteSpace=wrap;html=1;boundedLbl=1;backgroundOutline=1;darkOpacity=0.05;darkOpacity2=0.1;size=20;direction=east;flipH=1;fillColor=#ffe6cc;strokeColor=#d79b00;" vertex="1" parent="1">
          <mxGeometry x="351" y="262.56" width="40" height="73.13" as="geometry" />
        </mxCell>
        <mxCell id="FcZPNLN2SZ12-Trmu3FX-138" value="" style="shape=cube;whiteSpace=wrap;html=1;boundedLbl=1;backgroundOutline=1;darkOpacity=0.05;darkOpacity2=0.1;size=10;direction=east;flipH=1;fillColor=#f8cecc;strokeColor=#b85450;" vertex="1" parent="1">
          <mxGeometry x="381" y="279.13" width="35" height="40" as="geometry" />
        </mxCell>
        <mxCell id="FcZPNLN2SZ12-Trmu3FX-139" value="" style="shape=cube;whiteSpace=wrap;html=1;boundedLbl=1;backgroundOutline=1;darkOpacity=0.05;darkOpacity2=0.1;size=10;direction=east;flipH=1;fillColor=#ffe6cc;strokeColor=#d79b00;" vertex="1" parent="1">
          <mxGeometry x="412" y="279.13" width="35" height="40" as="geometry" />
        </mxCell>
        <mxCell id="FcZPNLN2SZ12-Trmu3FX-140" value="" style="shape=cube;whiteSpace=wrap;html=1;boundedLbl=1;backgroundOutline=1;darkOpacity=0.05;darkOpacity2=0.1;size=7;direction=east;flipH=1;fillColor=#f8cecc;strokeColor=#b85450;" vertex="1" parent="1">
          <mxGeometry x="511" y="288.96" width="33" height="20.32" as="geometry" />
        </mxCell>
        <mxCell id="FcZPNLN2SZ12-Trmu3FX-141" value="" style="shape=cube;whiteSpace=wrap;html=1;boundedLbl=1;backgroundOutline=1;darkOpacity=0.05;darkOpacity2=0.1;size=3;direction=east;flipH=1;fillColor=#dae8fc;strokeColor=#6c8ebf;" vertex="1" parent="1">
          <mxGeometry x="546" y="295.12" width="74" height="8" as="geometry" />
        </mxCell>
        <mxCell id="FcZPNLN2SZ12-Trmu3FX-142" value="" style="shape=cube;whiteSpace=wrap;html=1;boundedLbl=1;backgroundOutline=1;darkOpacity=0.05;darkOpacity2=0.1;size=3;direction=east;flipH=1;fillColor=#dae8fc;strokeColor=#6c8ebf;" vertex="1" parent="1">
          <mxGeometry x="622" y="295.13" width="74" height="8" as="geometry" />
        </mxCell>
        <mxCell id="FcZPNLN2SZ12-Trmu3FX-143" value="" style="shape=cube;whiteSpace=wrap;html=1;boundedLbl=1;backgroundOutline=1;darkOpacity=0.05;darkOpacity2=0.1;size=3;direction=east;flipH=1;fillColor=#dae8fc;strokeColor=#6c8ebf;" vertex="1" parent="1">
          <mxGeometry x="698" y="295.13" width="38" height="8" as="geometry" />
        </mxCell>
        <mxCell id="FcZPNLN2SZ12-Trmu3FX-144" value="" style="shape=cube;whiteSpace=wrap;html=1;boundedLbl=1;backgroundOutline=1;darkOpacity=0.05;darkOpacity2=0.1;size=7;direction=east;flipH=1;fillColor=#ffe6cc;strokeColor=#d79b00;" vertex="1" parent="1">
          <mxGeometry x="563" y="396" width="30" height="20" as="geometry" />
        </mxCell>
        <mxCell id="FcZPNLN2SZ12-Trmu3FX-145" value="" style="shape=cube;whiteSpace=wrap;html=1;boundedLbl=1;backgroundOutline=1;darkOpacity=0.05;darkOpacity2=0.1;size=7;direction=east;flipH=1;fillColor=#f8cecc;strokeColor=#b85450;" vertex="1" parent="1">
          <mxGeometry x="563" y="426" width="30" height="20" as="geometry" />
        </mxCell>
        <mxCell id="FcZPNLN2SZ12-Trmu3FX-146" value="" style="shape=cube;whiteSpace=wrap;html=1;boundedLbl=1;backgroundOutline=1;darkOpacity=0.05;darkOpacity2=0.1;size=7;direction=east;flipH=1;fillColor=#dae8fc;strokeColor=#6c8ebf;" vertex="1" parent="1">
          <mxGeometry x="563" y="456" width="30" height="20" as="geometry" />
        </mxCell>
        <mxCell id="FcZPNLN2SZ12-Trmu3FX-147" value="" style="shape=cube;whiteSpace=wrap;html=1;boundedLbl=1;backgroundOutline=1;darkOpacity=0.05;darkOpacity2=0.1;size=3;direction=east;flipH=1;fillColor=#d5e8d4;strokeColor=#82b366;" vertex="1" parent="1">
          <mxGeometry x="738" y="295.12" width="38" height="8" as="geometry" />
        </mxCell>
        <mxCell id="FcZPNLN2SZ12-Trmu3FX-148" value="" style="shape=cube;whiteSpace=wrap;html=1;boundedLbl=1;backgroundOutline=1;darkOpacity=0.05;darkOpacity2=0.1;size=7;direction=east;flipH=1;fillColor=#d5e8d4;strokeColor=#82b366;" vertex="1" parent="1">
          <mxGeometry x="563" y="486" width="30" height="20" as="geometry" />
        </mxCell>
        <mxCell id="FcZPNLN2SZ12-Trmu3FX-149" value="&lt;b&gt;conv1&lt;/b&gt;" style="text;html=1;strokeColor=none;fillColor=none;align=center;verticalAlign=middle;whiteSpace=wrap;rounded=0;" vertex="1" parent="1">
          <mxGeometry x="185" y="60" width="40" height="30" as="geometry" />
        </mxCell>
        <mxCell id="FcZPNLN2SZ12-Trmu3FX-150" value="&lt;b&gt;conv2&lt;/b&gt;" style="text;html=1;strokeColor=none;fillColor=none;align=center;verticalAlign=middle;whiteSpace=wrap;rounded=0;" vertex="1" parent="1">
          <mxGeometry x="216" y="152" width="40" height="30" as="geometry" />
        </mxCell>
        <mxCell id="FcZPNLN2SZ12-Trmu3FX-151" value="&lt;b&gt;conv3&lt;/b&gt;" style="text;html=1;strokeColor=none;fillColor=none;align=center;verticalAlign=middle;whiteSpace=wrap;rounded=0;" vertex="1" parent="1">
          <mxGeometry x="247" y="196" width="40" height="30" as="geometry" />
        </mxCell>
        <mxCell id="FcZPNLN2SZ12-Trmu3FX-152" value="&lt;b&gt;conv4&lt;/b&gt;" style="text;html=1;strokeColor=none;fillColor=none;align=center;verticalAlign=middle;whiteSpace=wrap;rounded=0;" vertex="1" parent="1">
          <mxGeometry x="326" y="232.25" width="40" height="30" as="geometry" />
        </mxCell>
        <mxCell id="FcZPNLN2SZ12-Trmu3FX-153" value="&lt;b&gt;conv5&lt;/b&gt;" style="text;html=1;strokeColor=none;fillColor=none;align=center;verticalAlign=middle;whiteSpace=wrap;rounded=0;" vertex="1" parent="1">
          <mxGeometry x="441" y="246" width="40" height="30" as="geometry" />
        </mxCell>
        <mxCell id="FcZPNLN2SZ12-Trmu3FX-154" value="&lt;b&gt;fc6&lt;/b&gt;" style="text;html=1;strokeColor=none;fillColor=none;align=center;verticalAlign=middle;whiteSpace=wrap;rounded=0;" vertex="1" parent="1">
          <mxGeometry x="563" y="262.56" width="40" height="30" as="geometry" />
        </mxCell>
        <mxCell id="FcZPNLN2SZ12-Trmu3FX-155" value="&lt;b&gt;fc7&lt;/b&gt;" style="text;html=1;strokeColor=none;fillColor=none;align=center;verticalAlign=middle;whiteSpace=wrap;rounded=0;" vertex="1" parent="1">
          <mxGeometry x="639" y="262.56" width="40" height="30" as="geometry" />
        </mxCell>
        <mxCell id="FcZPNLN2SZ12-Trmu3FX-156" value="&lt;b&gt;fc8&lt;/b&gt;" style="text;html=1;strokeColor=none;fillColor=none;align=center;verticalAlign=middle;whiteSpace=wrap;rounded=0;" vertex="1" parent="1">
          <mxGeometry x="698" y="262.56" width="40" height="30" as="geometry" />
        </mxCell>
        <mxCell id="FcZPNLN2SZ12-Trmu3FX-157" value="224 x 224 x 64" style="text;html=1;strokeColor=none;fillColor=none;align=center;verticalAlign=middle;whiteSpace=wrap;rounded=0;" vertex="1" parent="1">
          <mxGeometry x="30" y="470" width="99" height="30" as="geometry" />
        </mxCell>
        <mxCell id="FcZPNLN2SZ12-Trmu3FX-158" value="112 x 112 x 128" style="text;html=1;strokeColor=none;fillColor=none;align=center;verticalAlign=middle;whiteSpace=wrap;rounded=0;" vertex="1" parent="1">
          <mxGeometry x="117" y="426" width="99" height="30" as="geometry" />
        </mxCell>
        <mxCell id="FcZPNLN2SZ12-Trmu3FX-159" value="56 x 56 x 256" style="text;html=1;strokeColor=none;fillColor=none;align=center;verticalAlign=middle;whiteSpace=wrap;rounded=0;" vertex="1" parent="1">
          <mxGeometry x="204" y="365" width="99" height="30" as="geometry" />
        </mxCell>
        <mxCell id="FcZPNLN2SZ12-Trmu3FX-160" value="28 x 28 x 512" style="text;html=1;strokeColor=none;fillColor=none;align=center;verticalAlign=middle;whiteSpace=wrap;rounded=0;" vertex="1" parent="1">
          <mxGeometry x="275" y="332" width="99" height="30" as="geometry" />
        </mxCell>
        <mxCell id="FcZPNLN2SZ12-Trmu3FX-161" value="14 x 14 x 512" style="text;html=1;strokeColor=none;fillColor=none;align=center;verticalAlign=middle;whiteSpace=wrap;rounded=0;" vertex="1" parent="1">
          <mxGeometry x="391" y="317.12" width="99" height="30" as="geometry" />
        </mxCell>
        <mxCell id="FcZPNLN2SZ12-Trmu3FX-162" value="" style="shape=cube;whiteSpace=wrap;html=1;boundedLbl=1;backgroundOutline=1;darkOpacity=0.05;darkOpacity2=0.1;size=10;direction=east;flipH=1;fillColor=#ffe6cc;strokeColor=#d79b00;" vertex="1" parent="1">
          <mxGeometry x="441" y="279.13" width="35" height="40" as="geometry" />
        </mxCell>
        <mxCell id="FcZPNLN2SZ12-Trmu3FX-163" value="" style="shape=cube;whiteSpace=wrap;html=1;boundedLbl=1;backgroundOutline=1;darkOpacity=0.05;darkOpacity2=0.1;size=10;direction=east;flipH=1;fillColor=#ffe6cc;strokeColor=#d79b00;" vertex="1" parent="1">
          <mxGeometry x="472" y="279.12" width="35" height="40" as="geometry" />
        </mxCell>
        <mxCell id="FcZPNLN2SZ12-Trmu3FX-164" value="7 x 7 x 512" style="text;html=1;strokeColor=none;fillColor=none;align=center;verticalAlign=middle;whiteSpace=wrap;rounded=0;" vertex="1" parent="1">
          <mxGeometry x="474" y="342.12" width="99" height="23.88" as="geometry" />
        </mxCell>
        <mxCell id="FcZPNLN2SZ12-Trmu3FX-165" value="" style="endArrow=classic;html=1;entryX=0.605;entryY=1.084;entryDx=0;entryDy=0;entryPerimeter=0;" edge="1" parent="1" source="FcZPNLN2SZ12-Trmu3FX-164" target="FcZPNLN2SZ12-Trmu3FX-140">
          <mxGeometry width="50" height="50" relative="1" as="geometry">
            <mxPoint x="527.16" y="347.12" as="sourcePoint" />
            <mxPoint x="528" y="317" as="targetPoint" />
          </mxGeometry>
        </mxCell>
        <mxCell id="FcZPNLN2SZ12-Trmu3FX-166" value="1 x 1 x 4096" style="text;html=1;strokeColor=none;fillColor=none;align=center;verticalAlign=middle;whiteSpace=wrap;rounded=0;" vertex="1" parent="1">
          <mxGeometry x="573" y="303.13" width="99" height="24" as="geometry" />
        </mxCell>
        <mxCell id="FcZPNLN2SZ12-Trmu3FX-167" value="1 x 1 x 1000" style="text;html=1;strokeColor=none;fillColor=none;align=center;verticalAlign=middle;whiteSpace=wrap;rounded=0;" vertex="1" parent="1">
          <mxGeometry x="688" y="303.13" width="99" height="24" as="geometry" />
        </mxCell>
        <mxCell id="FcZPNLN2SZ12-Trmu3FX-168" value="convolutional + ReLU" style="text;html=1;strokeColor=none;fillColor=none;align=left;verticalAlign=middle;whiteSpace=wrap;rounded=0;fontStyle=1" vertex="1" parent="1">
          <mxGeometry x="604" y="393.06" width="138" height="23.88" as="geometry" />
        </mxCell>
        <mxCell id="FcZPNLN2SZ12-Trmu3FX-169" value="max pooling" style="text;html=1;strokeColor=none;fillColor=none;align=left;verticalAlign=middle;whiteSpace=wrap;rounded=0;fontStyle=1" vertex="1" parent="1">
          <mxGeometry x="604" y="423.06" width="138" height="23.88" as="geometry" />
        </mxCell>
        <mxCell id="FcZPNLN2SZ12-Trmu3FX-170" value="fully connected + ReLU" style="text;html=1;strokeColor=none;fillColor=none;align=left;verticalAlign=middle;whiteSpace=wrap;rounded=0;fontStyle=1" vertex="1" parent="1">
          <mxGeometry x="604" y="454.12" width="138" height="23.88" as="geometry" />
        </mxCell>
        <mxCell id="FcZPNLN2SZ12-Trmu3FX-171" value="softmax" style="text;html=1;strokeColor=none;fillColor=none;align=left;verticalAlign=middle;whiteSpace=wrap;rounded=0;fontStyle=1" vertex="1" parent="1">
          <mxGeometry x="603" y="482.12" width="138" height="23.88" as="geometry" />
        </mxCell>
        <mxCell id="FcZPNLN2SZ12-Trmu3FX-188" value="" style="group" vertex="1" connectable="0" parent="1">
          <mxGeometry x="158.005" y="812.005" width="192.75" height="67" as="geometry" />
        </mxCell>
        <mxCell id="FcZPNLN2SZ12-Trmu3FX-132" value="" style="shape=cube;whiteSpace=wrap;html=1;boundedLbl=1;backgroundOutline=1;darkOpacity=0.05;darkOpacity2=0.1;size=40;direction=east;flipH=0;fillColor=#ffe6cc;strokeColor=#d79b00;rotation=90;" vertex="1" parent="FcZPNLN2SZ12-Trmu3FX-188">
          <mxGeometry x="71.375" y="-54.375" width="50" height="192.75" as="geometry" />
        </mxCell>
        <mxCell id="FcZPNLN2SZ12-Trmu3FX-175" value="" style="shape=cube;whiteSpace=wrap;html=1;boundedLbl=1;backgroundOutline=1;darkOpacity=0.05;darkOpacity2=0.1;size=40;direction=east;flipH=0;fillColor=#ffe6cc;strokeColor=#d79b00;rotation=90;" vertex="1" parent="FcZPNLN2SZ12-Trmu3FX-188">
          <mxGeometry x="71.375" y="-71.375" width="50" height="192.75" as="geometry" />
        </mxCell>
        <mxCell id="FcZPNLN2SZ12-Trmu3FX-189" value="" style="group" vertex="1" connectable="0" parent="1">
          <mxGeometry x="139.5" y="729" width="276.5" height="96" as="geometry" />
        </mxCell>
        <mxCell id="FcZPNLN2SZ12-Trmu3FX-129" value="" style="shape=cube;whiteSpace=wrap;html=1;boundedLbl=1;backgroundOutline=1;darkOpacity=0.05;darkOpacity2=0.1;size=70;direction=east;flipH=0;fillColor=#ffe6cc;strokeColor=#d79b00;rotation=90;" vertex="1" parent="FcZPNLN2SZ12-Trmu3FX-189">
          <mxGeometry x="98.25" y="-82.25" width="80" height="276.5" as="geometry" />
        </mxCell>
        <mxCell id="FcZPNLN2SZ12-Trmu3FX-174" value="" style="shape=cube;whiteSpace=wrap;html=1;boundedLbl=1;backgroundOutline=1;darkOpacity=0.05;darkOpacity2=0.1;size=70;direction=east;flipH=0;fillColor=#ffe6cc;strokeColor=#d79b00;rotation=90;" vertex="1" parent="FcZPNLN2SZ12-Trmu3FX-189">
          <mxGeometry x="98.25" y="-98.25" width="80" height="276.5" as="geometry" />
        </mxCell>
        <mxCell id="FcZPNLN2SZ12-Trmu3FX-125" value="" style="shape=cube;whiteSpace=wrap;html=1;boundedLbl=1;backgroundOutline=1;darkOpacity=0.05;darkOpacity2=0.1;size=110;direction=east;flipH=0;fillColor=#ffe6cc;strokeColor=#d79b00;rotation=90;" vertex="1" parent="1">
          <mxGeometry x="238.75" y="511.75" width="121.5" height="399" as="geometry" />
        </mxCell>
        <mxCell id="FcZPNLN2SZ12-Trmu3FX-126" value="" style="shape=cube;whiteSpace=wrap;html=1;boundedLbl=1;backgroundOutline=1;darkOpacity=0.05;darkOpacity2=0.1;size=110;direction=east;flipH=0;fillColor=#ffe6cc;strokeColor=#d79b00;rotation=90;" vertex="1" parent="1">
          <mxGeometry x="238.75" y="493.75" width="121.5" height="399" as="geometry" />
        </mxCell>
        <mxCell id="FcZPNLN2SZ12-Trmu3FX-222" value="" style="shape=cube;whiteSpace=wrap;html=1;boundedLbl=1;backgroundOutline=1;darkOpacity=0.05;darkOpacity2=0.1;size=110;direction=east;flipH=0;fillColor=#d5e8d4;strokeColor=#82b366;rotation=90;" vertex="1" parent="1">
          <mxGeometry x="238.75" y="472.12" width="121.5" height="399" as="geometry" />
        </mxCell>
        <mxCell id="FcZPNLN2SZ12-Trmu3FX-223" value="" style="shape=cube;whiteSpace=wrap;html=1;boundedLbl=1;backgroundOutline=1;darkOpacity=0.05;darkOpacity2=0.1;size=110;direction=east;flipH=0;fillColor=#ffe6cc;strokeColor=#d79b00;rotation=90;" vertex="1" parent="1">
          <mxGeometry x="238.75" y="454.12" width="121.5" height="399" as="geometry" />
        </mxCell>
        <mxCell id="FcZPNLN2SZ12-Trmu3FX-229" value="" style="group" vertex="1" connectable="0" parent="1">
          <mxGeometry x="-63" y="740" width="120" height="30" as="geometry" />
        </mxCell>
        <mxCell id="FcZPNLN2SZ12-Trmu3FX-224" value="x3" style="text;html=1;strokeColor=none;fillColor=none;align=center;verticalAlign=middle;whiteSpace=wrap;rounded=0;" vertex="1" parent="FcZPNLN2SZ12-Trmu3FX-229">
          <mxGeometry y="5" width="99" height="20" as="geometry" />
        </mxCell>
        <mxCell id="FcZPNLN2SZ12-Trmu3FX-226" value="" style="strokeWidth=2;html=1;shape=mxgraph.flowchart.annotation_2;align=left;labelPosition=right;pointerEvents=1;" vertex="1" parent="FcZPNLN2SZ12-Trmu3FX-229">
          <mxGeometry x="70" width="50" height="30" as="geometry" />
        </mxCell>
        <mxCell id="FcZPNLN2SZ12-Trmu3FX-230" value="" style="group" vertex="1" connectable="0" parent="1">
          <mxGeometry x="12.5" y="796.01" width="120" height="30" as="geometry" />
        </mxCell>
        <mxCell id="FcZPNLN2SZ12-Trmu3FX-231" value="x4" style="text;html=1;strokeColor=none;fillColor=none;align=center;verticalAlign=middle;whiteSpace=wrap;rounded=0;" vertex="1" parent="FcZPNLN2SZ12-Trmu3FX-230">
          <mxGeometry x="-75" y="5" width="99" height="20" as="geometry" />
        </mxCell>
        <mxCell id="FcZPNLN2SZ12-Trmu3FX-232" value="" style="strokeWidth=2;html=1;shape=mxgraph.flowchart.annotation_2;align=left;labelPosition=right;pointerEvents=1;" vertex="1" parent="FcZPNLN2SZ12-Trmu3FX-230">
          <mxGeometry x="-5" width="50" height="30" as="geometry" />
        </mxCell>
        <mxCell id="FcZPNLN2SZ12-Trmu3FX-234" value="x6" style="text;html=1;strokeColor=none;fillColor=none;align=center;verticalAlign=middle;whiteSpace=wrap;rounded=0;" vertex="1" parent="1">
          <mxGeometry x="-63" y="853.12" width="99" height="20" as="geometry" />
        </mxCell>
        <mxCell id="FcZPNLN2SZ12-Trmu3FX-236" value="" style="shape=cube;whiteSpace=wrap;html=1;boundedLbl=1;backgroundOutline=1;darkOpacity=0.05;darkOpacity2=0.1;size=7;direction=east;flipH=1;fillColor=#ffe6cc;strokeColor=#d79b00;" vertex="1" parent="1">
          <mxGeometry x="173.25" y="1032.94" width="30" height="20" as="geometry" />
        </mxCell>
        <mxCell id="FcZPNLN2SZ12-Trmu3FX-237" value="convolutional + BN + Activation function" style="text;html=1;strokeColor=none;fillColor=none;align=left;verticalAlign=middle;whiteSpace=wrap;rounded=0;fontStyle=1" vertex="1" parent="1">
          <mxGeometry x="214.25" y="1030" width="169" height="23.88" as="geometry" />
        </mxCell>
        <mxCell id="FcZPNLN2SZ12-Trmu3FX-238" value="" style="shape=cube;whiteSpace=wrap;html=1;boundedLbl=1;backgroundOutline=1;darkOpacity=0.05;darkOpacity2=0.1;size=7;direction=east;flipH=1;fillColor=#f8cecc;strokeColor=#b85450;" vertex="1" parent="1">
          <mxGeometry x="173.25" y="1069.81" width="30" height="20" as="geometry" />
        </mxCell>
        <mxCell id="FcZPNLN2SZ12-Trmu3FX-239" value="max pooling" style="text;html=1;strokeColor=none;fillColor=none;align=left;verticalAlign=middle;whiteSpace=wrap;rounded=0;fontStyle=1" vertex="1" parent="1">
          <mxGeometry x="214.25" y="1066.87" width="138" height="23.88" as="geometry" />
        </mxCell>
        <mxCell id="FcZPNLN2SZ12-Trmu3FX-233" value="" style="strokeWidth=2;html=1;shape=mxgraph.flowchart.annotation_2;align=left;labelPosition=right;pointerEvents=1;" vertex="1" parent="1">
          <mxGeometry x="8" y="847" width="50" height="30" as="geometry" />
        </mxCell>
        <mxCell id="FcZPNLN2SZ12-Trmu3FX-247" value="" style="shape=cube;whiteSpace=wrap;html=1;boundedLbl=1;backgroundOutline=1;darkOpacity=0.05;darkOpacity2=0.1;size=7;direction=east;flipH=1;fillColor=#e1d5e7;strokeColor=#9673a6;" vertex="1" parent="1">
          <mxGeometry x="173.25" y="1105.69" width="30" height="20" as="geometry" />
        </mxCell>
        <mxCell id="FcZPNLN2SZ12-Trmu3FX-248" value="Interpolate + convolution&lt;br&gt;upconv" style="text;html=1;strokeColor=none;fillColor=none;align=left;verticalAlign=middle;whiteSpace=wrap;rounded=0;fontStyle=1" vertex="1" parent="1">
          <mxGeometry x="214.25" y="1103.75" width="156.5" height="23.88" as="geometry" />
        </mxCell>
        <mxCell id="FcZPNLN2SZ12-Trmu3FX-252" value="" style="edgeStyle=elbowEdgeStyle;elbow=horizontal;endArrow=classic;html=1;curved=0;rounded=0;endSize=8;startSize=8;exitX=0;exitY=0;exitDx=66.49999999999999;exitDy=55;exitPerimeter=0;entryX=0;entryY=0;entryDx=66.49999999999999;entryDy=55;entryPerimeter=0;" edge="1" parent="1" source="FcZPNLN2SZ12-Trmu3FX-125" target="FcZPNLN2SZ12-Trmu3FX-216">
          <mxGeometry width="50" height="50" relative="1" as="geometry">
            <mxPoint x="270" y="840" as="sourcePoint" />
            <mxPoint x="320" y="790" as="targetPoint" />
            <Array as="points">
              <mxPoint x="590" y="830" />
            </Array>
          </mxGeometry>
        </mxCell>
        <mxCell id="FcZPNLN2SZ12-Trmu3FX-253" value="" style="edgeStyle=elbowEdgeStyle;elbow=horizontal;endArrow=classic;html=1;curved=0;rounded=0;endSize=8;startSize=8;exitX=0;exitY=0;exitDx=45;exitDy=35;exitPerimeter=0;entryX=0;entryY=0;entryDx=45;entryDy=35;entryPerimeter=0;" edge="1" parent="1" source="FcZPNLN2SZ12-Trmu3FX-129" target="FcZPNLN2SZ12-Trmu3FX-241">
          <mxGeometry width="50" height="50" relative="1" as="geometry">
            <mxPoint x="454.00000000000045" y="727.0000000000002" as="sourcePoint" />
            <mxPoint x="454.00000000000045" y="955.19" as="targetPoint" />
            <Array as="points">
              <mxPoint x="560" y="850" />
            </Array>
          </mxGeometry>
        </mxCell>
        <mxCell id="FcZPNLN2SZ12-Trmu3FX-260" value="" style="shape=cube;whiteSpace=wrap;html=1;boundedLbl=1;backgroundOutline=1;darkOpacity=0.05;darkOpacity2=0.1;size=110;direction=east;flipH=0;rotation=90;" vertex="1" parent="1">
          <mxGeometry x="791.25" y="482.12" width="121.5" height="399" as="geometry" />
        </mxCell>
        <mxCell id="FcZPNLN2SZ12-Trmu3FX-264" value="" style="shape=cube;whiteSpace=wrap;html=1;boundedLbl=1;backgroundOutline=1;darkOpacity=0.05;darkOpacity2=0.1;size=110;direction=east;flipH=0;rotation=90;" vertex="1" parent="1">
          <mxGeometry x="787" y="750" width="121.5" height="399" as="geometry" />
        </mxCell>
        <mxCell id="FcZPNLN2SZ12-Trmu3FX-263" value="" style="shape=cube;whiteSpace=wrap;html=1;boundedLbl=1;backgroundOutline=1;darkOpacity=0.05;darkOpacity2=0.1;size=70;direction=east;flipH=0;rotation=90;" vertex="1" parent="1">
          <mxGeometry x="812" y="756.44" width="80" height="276.5" as="geometry" />
        </mxCell>
        <mxCell id="FcZPNLN2SZ12-Trmu3FX-266" value="" style="shape=cube;whiteSpace=wrap;html=1;boundedLbl=1;backgroundOutline=1;darkOpacity=0.05;darkOpacity2=0.1;size=40;direction=east;flipH=0;rotation=90;" vertex="1" parent="1">
          <mxGeometry x="827" y="766.74" width="50" height="192.75" as="geometry" />
        </mxCell>
        <mxCell id="FcZPNLN2SZ12-Trmu3FX-268" value="" style="endArrow=none;dashed=1;html=1;dashPattern=1 3;strokeWidth=2;rounded=0;exitX=0;exitY=0;exitDx=66.49999999999999;exitDy=55;exitPerimeter=0;entryX=0;entryY=0;entryDx=55;entryDy=344;entryPerimeter=0;" edge="1" parent="1" source="FcZPNLN2SZ12-Trmu3FX-222" target="FcZPNLN2SZ12-Trmu3FX-260">
          <mxGeometry width="50" height="50" relative="1" as="geometry">
            <mxPoint x="390" y="840" as="sourcePoint" />
            <mxPoint x="440" y="790" as="targetPoint" />
          </mxGeometry>
        </mxCell>
        <mxCell id="FcZPNLN2SZ12-Trmu3FX-269" value="" style="endArrow=none;dashed=1;html=1;dashPattern=1 3;strokeWidth=2;rounded=0;exitX=0;exitY=0;exitDx=30;exitDy=20;exitPerimeter=0;entryX=0;entryY=0;entryDx=20;entryDy=172.75;entryPerimeter=0;" edge="1" parent="1" source="FcZPNLN2SZ12-Trmu3FX-132" target="FcZPNLN2SZ12-Trmu3FX-266">
          <mxGeometry width="50" height="50" relative="1" as="geometry">
            <mxPoint x="447.00000000000045" y="824.5900000000003" as="sourcePoint" />
            <mxPoint x="640" y="854" as="targetPoint" />
          </mxGeometry>
        </mxCell>
        <mxCell id="FcZPNLN2SZ12-Trmu3FX-270" value="" style="endArrow=none;dashed=1;html=1;dashPattern=1 3;strokeWidth=2;rounded=0;exitX=0;exitY=0;exitDx=45;exitDy=35;exitPerimeter=0;entryX=0;entryY=0;entryDx=35;entryDy=241.5;entryPerimeter=0;" edge="1" parent="1" source="FcZPNLN2SZ12-Trmu3FX-241" target="FcZPNLN2SZ12-Trmu3FX-263">
          <mxGeometry width="50" height="50" relative="1" as="geometry">
            <mxPoint x="390" y="900" as="sourcePoint" />
            <mxPoint x="745.625" y="868.115" as="targetPoint" />
          </mxGeometry>
        </mxCell>
        <mxCell id="FcZPNLN2SZ12-Trmu3FX-271" value="" style="endArrow=none;dashed=1;html=1;dashPattern=1 3;strokeWidth=2;rounded=0;exitX=0;exitY=0;exitDx=66.49999999999999;exitDy=55;exitPerimeter=0;entryX=0;entryY=0;entryDx=55;entryDy=344;entryPerimeter=0;" edge="1" parent="1" source="FcZPNLN2SZ12-Trmu3FX-216" target="FcZPNLN2SZ12-Trmu3FX-264">
          <mxGeometry width="50" height="50" relative="1" as="geometry">
            <mxPoint x="391.50000000000045" y="905.7500000000002" as="sourcePoint" />
            <mxPoint x="758.75" y="899.6900000000003" as="targetPoint" />
          </mxGeometry>
        </mxCell>
        <mxCell id="FcZPNLN2SZ12-Trmu3FX-273" value="&lt;font style=&quot;font-size: 17px;&quot;&gt;Interpolate and concat&lt;/font&gt;" style="text;html=1;strokeColor=none;fillColor=none;align=left;verticalAlign=middle;whiteSpace=wrap;rounded=0;fontStyle=1" vertex="1" parent="1">
          <mxGeometry x="652.5" y="1069.8100000000002" width="224.5" height="23.88" as="geometry" />
        </mxCell>
        <mxCell id="FcZPNLN2SZ12-Trmu3FX-274" value="" style="shape=cube;whiteSpace=wrap;html=1;boundedLbl=1;backgroundOutline=1;darkOpacity=0.05;darkOpacity2=0.1;size=110;direction=east;flipH=0;rotation=90;fillColor=#dae8fc;strokeColor=#6c8ebf;" vertex="1" parent="1">
          <mxGeometry x="776" y="990" width="121.5" height="399" as="geometry" />
        </mxCell>
        <mxCell id="FcZPNLN2SZ12-Trmu3FX-276" value="" style="endArrow=none;dashed=1;html=1;dashPattern=1 3;strokeWidth=2;rounded=0;exitX=0;exitY=0;exitDx=30;exitDy=20;exitPerimeter=0;entryX=0;entryY=0;entryDx=20;entryDy=172.75;entryPerimeter=0;" edge="1" parent="1" source="FcZPNLN2SZ12-Trmu3FX-266" target="FcZPNLN2SZ12-Trmu3FX-277">
          <mxGeometry width="50" height="50" relative="1" as="geometry">
            <mxPoint x="1159.9950000000001" y="767.6350000000001" as="sourcePoint" />
            <mxPoint x="1200" y="868" as="targetPoint" />
          </mxGeometry>
        </mxCell>
        <mxCell id="FcZPNLN2SZ12-Trmu3FX-277" value="" style="shape=cube;whiteSpace=wrap;html=1;boundedLbl=1;backgroundOutline=1;darkOpacity=0.05;darkOpacity2=0.1;size=40;direction=east;flipH=0;rotation=90;" vertex="1" parent="1">
          <mxGeometry x="1270" y="776.74" width="50" height="192.75" as="geometry" />
        </mxCell>
        <mxCell id="FcZPNLN2SZ12-Trmu3FX-278" value="Transformer Layer base on Attention Free Transformer" style="rounded=1;whiteSpace=wrap;html=1;fontSize=17;fillColor=#ffe6cc;strokeColor=#330000;" vertex="1" parent="1">
          <mxGeometry x="1160" y="969.4899999999999" width="270" height="80.19" as="geometry" />
        </mxCell>
        <mxCell id="FcZPNLN2SZ12-Trmu3FX-279" style="edgeStyle=orthogonalEdgeStyle;rounded=0;orthogonalLoop=1;jettySize=auto;html=1;fontSize=17;strokeWidth=5;entryX=0.5;entryY=0;entryDx=0;entryDy=0;" edge="1" parent="1" source="FcZPNLN2SZ12-Trmu3FX-277" target="FcZPNLN2SZ12-Trmu3FX-278">
          <mxGeometry relative="1" as="geometry">
            <mxPoint x="901.0000000000005" y="1130" as="targetPoint" />
            <mxPoint x="901.0000000000005" y="1060" as="sourcePoint" />
          </mxGeometry>
        </mxCell>
        <mxCell id="FcZPNLN2SZ12-Trmu3FX-281" style="edgeStyle=orthogonalEdgeStyle;rounded=0;orthogonalLoop=1;jettySize=auto;html=1;fontSize=17;strokeWidth=5;entryX=0.01;entryY=0.48;entryDx=0;entryDy=0;entryPerimeter=0;exitX=0.5;exitY=1;exitDx=0;exitDy=0;" edge="1" parent="1" source="FcZPNLN2SZ12-Trmu3FX-278" target="FcZPNLN2SZ12-Trmu3FX-282">
          <mxGeometry relative="1" as="geometry">
            <mxPoint x="1305" y="1177.19" as="targetPoint" />
            <mxPoint x="1305" y="1075.1149999999998" as="sourcePoint" />
          </mxGeometry>
        </mxCell>
        <mxCell id="FcZPNLN2SZ12-Trmu3FX-282" value="" style="shape=cube;whiteSpace=wrap;html=1;boundedLbl=1;backgroundOutline=1;darkOpacity=0.05;darkOpacity2=0.1;size=110;direction=east;flipH=0;rotation=90;fillColor=#dae8fc;strokeColor=#6c8ebf;" vertex="1" parent="1">
          <mxGeometry x="1227" y="990" width="121.5" height="399" as="geometry" />
        </mxCell>
        <mxCell id="FcZPNLN2SZ12-Trmu3FX-283" value="&lt;font style=&quot;font-size: 17px;&quot;&gt;Interpolate&lt;/font&gt;" style="text;html=1;strokeColor=none;fillColor=none;align=left;verticalAlign=middle;whiteSpace=wrap;rounded=0;fontStyle=1" vertex="1" parent="1">
          <mxGeometry x="1183" y="1069.8100000000002" width="116" height="23.88" as="geometry" />
        </mxCell>
        <mxCell id="FcZPNLN2SZ12-Trmu3FX-285" value="" style="shape=cross;whiteSpace=wrap;html=1;strokeColor=#330000;fontSize=17;fillColor=#330000;gradientColor=none;" vertex="1" parent="1">
          <mxGeometry x="1050" y="1160" width="40" height="40" as="geometry" />
        </mxCell>
        <mxCell id="FcZPNLN2SZ12-Trmu3FX-287" value="" style="shape=singleArrow;whiteSpace=wrap;html=1;strokeColor=#330000;fontSize=17;fillColor=#330000;gradientColor=none;" vertex="1" parent="1">
          <mxGeometry x="1950" y="990" width="70" height="21.19" as="geometry" />
        </mxCell>
        <mxCell id="FcZPNLN2SZ12-Trmu3FX-288" value="" style="shape=cube;whiteSpace=wrap;html=1;boundedLbl=1;backgroundOutline=1;darkOpacity=0.05;darkOpacity2=0.1;size=110;direction=east;flipH=0;rotation=90;fillColor=#dae8fc;strokeColor=#6c8ebf;" vertex="1" parent="1">
          <mxGeometry x="1740" y="990" width="121.5" height="399" as="geometry" />
        </mxCell>
        <mxCell id="FcZPNLN2SZ12-Trmu3FX-304" value="" style="group" vertex="1" connectable="0" parent="1">
          <mxGeometry x="1720" y="1050" width="224.44000000000005" height="71.5" as="geometry" />
        </mxCell>
        <mxCell id="FcZPNLN2SZ12-Trmu3FX-290" value="" style="shape=cube;whiteSpace=wrap;html=1;boundedLbl=1;backgroundOutline=1;darkOpacity=0.05;darkOpacity2=0.1;size=122;direction=east;flipH=0;rotation=90;" vertex="1" parent="FcZPNLN2SZ12-Trmu3FX-304">
          <mxGeometry x="76.47000000000003" y="-76.47000000000003" width="71.5" height="224.44" as="geometry" />
        </mxCell>
        <mxCell id="FcZPNLN2SZ12-Trmu3FX-291" value="" style="shape=cube;whiteSpace=wrap;html=1;boundedLbl=1;backgroundOutline=1;darkOpacity=0.05;darkOpacity2=0.1;size=122;direction=east;flipH=0;rotation=90;fillColor=#FF0000;" vertex="1" parent="FcZPNLN2SZ12-Trmu3FX-304">
          <mxGeometry x="72.47000000000003" y="-13.230000000000018" width="12.5" height="39.44" as="geometry" />
        </mxCell>
        <mxCell id="FcZPNLN2SZ12-Trmu3FX-292" value="" style="shape=cube;whiteSpace=wrap;html=1;boundedLbl=1;backgroundOutline=1;darkOpacity=0.05;darkOpacity2=0.1;size=122;direction=east;flipH=0;rotation=90;fillColor=#FF0000;" vertex="1" parent="FcZPNLN2SZ12-Trmu3FX-304">
          <mxGeometry x="196.47000000000003" y="-13.230000000000018" width="12.5" height="39.44" as="geometry" />
        </mxCell>
        <mxCell id="FcZPNLN2SZ12-Trmu3FX-293" value="" style="shape=cube;whiteSpace=wrap;html=1;boundedLbl=1;backgroundOutline=1;darkOpacity=0.05;darkOpacity2=0.1;size=13;direction=east;flipH=0;rotation=90;fillColor=#FF0000;" vertex="1" parent="FcZPNLN2SZ12-Trmu3FX-304">
          <mxGeometry x="13.470000000000027" y="45.40000000000009" width="12.5" height="39.44" as="geometry" />
        </mxCell>
        <mxCell id="FcZPNLN2SZ12-Trmu3FX-294" value="" style="shape=cube;whiteSpace=wrap;html=1;boundedLbl=1;backgroundOutline=1;darkOpacity=0.05;darkOpacity2=0.1;size=13;direction=east;flipH=0;rotation=90;fillColor=#FF0000;" vertex="1" parent="FcZPNLN2SZ12-Trmu3FX-304">
          <mxGeometry x="139.47000000000003" y="45.40000000000009" width="12.5" height="39.44" as="geometry" />
        </mxCell>
        <mxCell id="FcZPNLN2SZ12-Trmu3FX-295" value="" style="shape=cube;whiteSpace=wrap;html=1;boundedLbl=1;backgroundOutline=1;darkOpacity=0.05;darkOpacity2=0.1;size=13;direction=east;flipH=0;rotation=90;fillColor=#FF0000;" vertex="1" parent="FcZPNLN2SZ12-Trmu3FX-304">
          <mxGeometry x="76.47000000000003" y="45.40000000000009" width="12.5" height="39.44" as="geometry" />
        </mxCell>
        <mxCell id="FcZPNLN2SZ12-Trmu3FX-296" value="" style="shape=cube;whiteSpace=wrap;html=1;boundedLbl=1;backgroundOutline=1;darkOpacity=0.05;darkOpacity2=0.1;size=13;direction=east;flipH=0;rotation=90;fillColor=#FF0000;" vertex="1" parent="FcZPNLN2SZ12-Trmu3FX-304">
          <mxGeometry x="135.47000000000003" y="-13.22999999999979" width="12.5" height="39.44" as="geometry" />
        </mxCell>
        <mxCell id="FcZPNLN2SZ12-Trmu3FX-298" value="" style="shape=cube;whiteSpace=wrap;html=1;boundedLbl=1;backgroundOutline=1;darkOpacity=0.05;darkOpacity2=0.1;size=13;direction=east;flipH=0;rotation=90;fillColor=#FF0000;" vertex="1" parent="FcZPNLN2SZ12-Trmu3FX-304">
          <mxGeometry x="43.47000000000003" y="16.029999999999973" width="12.5" height="39.44" as="geometry" />
        </mxCell>
        <mxCell id="FcZPNLN2SZ12-Trmu3FX-299" value="" style="shape=cube;whiteSpace=wrap;html=1;boundedLbl=1;backgroundOutline=1;darkOpacity=0.05;darkOpacity2=0.1;size=13;direction=east;flipH=0;rotation=90;fillColor=#FF0000;" vertex="1" parent="FcZPNLN2SZ12-Trmu3FX-304">
          <mxGeometry x="169.47000000000003" y="16.029999999999973" width="12.5" height="39.44" as="geometry" />
        </mxCell>
        <mxCell id="FcZPNLN2SZ12-Trmu3FX-303" value="" style="shape=cube;whiteSpace=wrap;html=1;boundedLbl=1;backgroundOutline=1;darkOpacity=0.05;darkOpacity2=0.1;size=13;direction=east;flipH=0;rotation=90;fillColor=#FF0000;" vertex="1" parent="FcZPNLN2SZ12-Trmu3FX-304">
          <mxGeometry x="105.97000000000003" y="16.0300000000002" width="12.5" height="39.44" as="geometry" />
        </mxCell>
        <mxCell id="FcZPNLN2SZ12-Trmu3FX-316" value="" style="group" vertex="1" connectable="0" parent="1">
          <mxGeometry x="1720" y="979.58" width="190" height="60" as="geometry" />
        </mxCell>
        <mxCell id="FcZPNLN2SZ12-Trmu3FX-317" value="" style="shape=cube;whiteSpace=wrap;html=1;boundedLbl=1;backgroundOutline=1;darkOpacity=0.05;darkOpacity2=0.1;size=122;direction=east;flipH=0;rotation=90;" vertex="1" parent="FcZPNLN2SZ12-Trmu3FX-316">
          <mxGeometry x="64.73578684726431" y="-64.1706293706294" width="60.52842630547138" height="188.34125874125874" as="geometry" />
        </mxCell>
        <mxCell id="FcZPNLN2SZ12-Trmu3FX-318" value="" style="shape=cube;whiteSpace=wrap;html=1;boundedLbl=1;backgroundOutline=1;darkOpacity=0.05;darkOpacity2=0.1;size=122;direction=east;flipH=0;rotation=90;fillColor=#FF0000;" vertex="1" parent="FcZPNLN2SZ12-Trmu3FX-316">
          <mxGeometry x="61.34958117982535" y="-11.102097902097917" width="10.581892710746745" height="33.096503496503495" as="geometry" />
        </mxCell>
        <mxCell id="FcZPNLN2SZ12-Trmu3FX-319" value="" style="shape=cube;whiteSpace=wrap;html=1;boundedLbl=1;backgroundOutline=1;darkOpacity=0.05;darkOpacity2=0.1;size=122;direction=east;flipH=0;rotation=90;fillColor=#FF0000;" vertex="1" parent="FcZPNLN2SZ12-Trmu3FX-316">
          <mxGeometry x="166.32195687043304" y="-11.102097902097917" width="10.581892710746745" height="33.096503496503495" as="geometry" />
        </mxCell>
        <mxCell id="FcZPNLN2SZ12-Trmu3FX-320" value="" style="shape=cube;whiteSpace=wrap;html=1;boundedLbl=1;backgroundOutline=1;darkOpacity=0.05;darkOpacity2=0.1;size=13;direction=east;flipH=0;rotation=90;fillColor=#FF0000;" vertex="1" parent="FcZPNLN2SZ12-Trmu3FX-316">
          <mxGeometry x="11.403047585100715" y="38.09790209790217" width="10.581892710746745" height="33.096503496503495" as="geometry" />
        </mxCell>
        <mxCell id="FcZPNLN2SZ12-Trmu3FX-321" value="" style="shape=cube;whiteSpace=wrap;html=1;boundedLbl=1;backgroundOutline=1;darkOpacity=0.05;darkOpacity2=0.1;size=13;direction=east;flipH=0;rotation=90;fillColor=#FF0000;" vertex="1" parent="FcZPNLN2SZ12-Trmu3FX-316">
          <mxGeometry x="118.06852610942789" y="38.09790209790217" width="10.581892710746745" height="33.096503496503495" as="geometry" />
        </mxCell>
        <mxCell id="FcZPNLN2SZ12-Trmu3FX-322" value="" style="shape=cube;whiteSpace=wrap;html=1;boundedLbl=1;backgroundOutline=1;darkOpacity=0.05;darkOpacity2=0.1;size=13;direction=east;flipH=0;rotation=90;fillColor=#FF0000;" vertex="1" parent="FcZPNLN2SZ12-Trmu3FX-316">
          <mxGeometry x="64.73578684726431" y="38.09790209790217" width="10.581892710746745" height="33.096503496503495" as="geometry" />
        </mxCell>
        <mxCell id="FcZPNLN2SZ12-Trmu3FX-323" value="" style="shape=cube;whiteSpace=wrap;html=1;boundedLbl=1;backgroundOutline=1;darkOpacity=0.05;darkOpacity2=0.1;size=13;direction=east;flipH=0;rotation=90;fillColor=#FF0000;" vertex="1" parent="FcZPNLN2SZ12-Trmu3FX-316">
          <mxGeometry x="114.68232044198894" y="-11.102097902097727" width="10.581892710746745" height="33.096503496503495" as="geometry" />
        </mxCell>
        <mxCell id="FcZPNLN2SZ12-Trmu3FX-324" value="" style="shape=cube;whiteSpace=wrap;html=1;boundedLbl=1;backgroundOutline=1;darkOpacity=0.05;darkOpacity2=0.1;size=13;direction=east;flipH=0;rotation=90;fillColor=#FF0000;" vertex="1" parent="FcZPNLN2SZ12-Trmu3FX-316">
          <mxGeometry x="36.7995900908929" y="13.45174825174823" width="10.581892710746745" height="33.096503496503495" as="geometry" />
        </mxCell>
        <mxCell id="FcZPNLN2SZ12-Trmu3FX-325" value="" style="shape=cube;whiteSpace=wrap;html=1;boundedLbl=1;backgroundOutline=1;darkOpacity=0.05;darkOpacity2=0.1;size=13;direction=east;flipH=0;rotation=90;fillColor=#FF0000;" vertex="1" parent="FcZPNLN2SZ12-Trmu3FX-316">
          <mxGeometry x="143.46506861522008" y="13.45174825174823" width="10.581892710746745" height="33.096503496503495" as="geometry" />
        </mxCell>
        <mxCell id="FcZPNLN2SZ12-Trmu3FX-326" value="" style="shape=cube;whiteSpace=wrap;html=1;boundedLbl=1;backgroundOutline=1;darkOpacity=0.05;darkOpacity2=0.1;size=13;direction=east;flipH=0;rotation=90;fillColor=#FF0000;" vertex="1" parent="FcZPNLN2SZ12-Trmu3FX-316">
          <mxGeometry x="89.70905364462662" y="13.45174825174842" width="10.581892710746745" height="33.096503496503495" as="geometry" />
        </mxCell>
        <mxCell id="FcZPNLN2SZ12-Trmu3FX-340" value="" style="group" vertex="1" connectable="0" parent="1">
          <mxGeometry x="1720.0016083916084" y="915.3364934949208" width="154.59678321678302" height="54.15701301015861" as="geometry" />
        </mxCell>
        <mxCell id="FcZPNLN2SZ12-Trmu3FX-329" value="" style="shape=cube;whiteSpace=wrap;html=1;boundedLbl=1;backgroundOutline=1;darkOpacity=0.05;darkOpacity2=0.1;size=122;direction=east;flipH=0;rotation=90;" vertex="1" parent="FcZPNLN2SZ12-Trmu3FX-340">
          <mxGeometry x="50.21988510331221" y="-50.21988510331232" width="54.1570130101586" height="154.59678321678322" as="geometry" />
        </mxCell>
        <mxCell id="FcZPNLN2SZ12-Trmu3FX-330" value="" style="shape=cube;whiteSpace=wrap;html=1;boundedLbl=1;backgroundOutline=1;darkOpacity=0.05;darkOpacity2=0.1;size=122;direction=east;flipH=0;rotation=90;fillColor=#FF0000;" vertex="1" parent="FcZPNLN2SZ12-Trmu3FX-340">
          <mxGeometry x="53.19012213770884" y="-8.659465522892788" width="9.468009267510245" height="27.166713286713286" as="geometry" />
        </mxCell>
        <mxCell id="FcZPNLN2SZ12-Trmu3FX-331" value="" style="shape=cube;whiteSpace=wrap;html=1;boundedLbl=1;backgroundOutline=1;darkOpacity=0.05;darkOpacity2=0.1;size=122;direction=east;flipH=0;rotation=90;fillColor=#FF0000;" vertex="1" parent="FcZPNLN2SZ12-Trmu3FX-340">
          <mxGeometry x="136.1127740714105" y="-8.629465522892815" width="9.468009267510245" height="27.166713286713286" as="geometry" />
        </mxCell>
        <mxCell id="FcZPNLN2SZ12-Trmu3FX-332" value="" style="shape=cube;whiteSpace=wrap;html=1;boundedLbl=1;backgroundOutline=1;darkOpacity=0.05;darkOpacity2=0.1;size=13;direction=east;flipH=0;rotation=90;fillColor=#FF0000;" vertex="1" parent="FcZPNLN2SZ12-Trmu3FX-340">
          <mxGeometry x="9.591118395060448" y="35.72553447710732" width="9.468009267510245" height="27.166713286713286" as="geometry" />
        </mxCell>
        <mxCell id="FcZPNLN2SZ12-Trmu3FX-333" value="" style="shape=cube;whiteSpace=wrap;html=1;boundedLbl=1;backgroundOutline=1;darkOpacity=0.05;darkOpacity2=0.1;size=13;direction=east;flipH=0;rotation=90;fillColor=#FF0000;" vertex="1" parent="FcZPNLN2SZ12-Trmu3FX-340">
          <mxGeometry x="91.90865181156391" y="35.72553447710732" width="9.468009267510245" height="27.166713286713286" as="geometry" />
        </mxCell>
        <mxCell id="FcZPNLN2SZ12-Trmu3FX-334" value="" style="shape=cube;whiteSpace=wrap;html=1;boundedLbl=1;backgroundOutline=1;darkOpacity=0.05;darkOpacity2=0.1;size=13;direction=east;flipH=0;rotation=90;fillColor=#FF0000;" vertex="1" parent="FcZPNLN2SZ12-Trmu3FX-340">
          <mxGeometry x="50.8398851033121" y="35.72553447710732" width="9.468009267510245" height="27.166713286713286" as="geometry" />
        </mxCell>
        <mxCell id="FcZPNLN2SZ12-Trmu3FX-335" value="" style="shape=cube;whiteSpace=wrap;html=1;boundedLbl=1;backgroundOutline=1;darkOpacity=0.05;darkOpacity2=0.1;size=13;direction=east;flipH=0;rotation=90;fillColor=#FF0000;" vertex="1" parent="FcZPNLN2SZ12-Trmu3FX-340">
          <mxGeometry x="94.90888884596052" y="-8.65946552289256" width="9.468009267510245" height="27.166713286713286" as="geometry" />
        </mxCell>
        <mxCell id="FcZPNLN2SZ12-Trmu3FX-336" value="" style="shape=cube;whiteSpace=wrap;html=1;boundedLbl=1;backgroundOutline=1;darkOpacity=0.05;darkOpacity2=0.1;size=13;direction=east;flipH=0;rotation=90;fillColor=#FF0000;" vertex="1" parent="FcZPNLN2SZ12-Trmu3FX-340">
          <mxGeometry x="31.224340637085106" y="13.495149861722666" width="9.468009267510245" height="27.166713286713286" as="geometry" />
        </mxCell>
        <mxCell id="FcZPNLN2SZ12-Trmu3FX-337" value="" style="shape=cube;whiteSpace=wrap;html=1;boundedLbl=1;backgroundOutline=1;darkOpacity=0.05;darkOpacity2=0.1;size=13;direction=east;flipH=0;rotation=90;fillColor=#FF0000;" vertex="1" parent="FcZPNLN2SZ12-Trmu3FX-340">
          <mxGeometry x="113.66187405358846" y="13.495149861722666" width="9.468009267510245" height="27.166713286713286" as="geometry" />
        </mxCell>
        <mxCell id="FcZPNLN2SZ12-Trmu3FX-338" value="" style="shape=cube;whiteSpace=wrap;html=1;boundedLbl=1;backgroundOutline=1;darkOpacity=0.05;darkOpacity2=0.1;size=13;direction=east;flipH=0;rotation=90;fillColor=#FF0000;" vertex="1" parent="FcZPNLN2SZ12-Trmu3FX-340">
          <mxGeometry x="72.56438697463636" y="13.49514986172278" width="9.468009267510245" height="27.166713286713286" as="geometry" />
        </mxCell>
        <mxCell id="FcZPNLN2SZ12-Trmu3FX-352" value="" style="group" vertex="1" connectable="0" parent="1">
          <mxGeometry x="1719.9976501785388" y="863.386498639153" width="97.52414172010958" height="38.72478082257055" as="geometry" />
        </mxCell>
        <mxCell id="FcZPNLN2SZ12-Trmu3FX-342" value="" style="shape=cube;whiteSpace=wrap;html=1;boundedLbl=1;backgroundOutline=1;darkOpacity=0.05;darkOpacity2=0.1;size=122;direction=east;flipH=0;rotation=90;" vertex="1" parent="FcZPNLN2SZ12-Trmu3FX-352">
          <mxGeometry x="29.4752237300861" y="-29.4038484606142" width="38.53425218274998" height="97.4846996429223" as="geometry" />
        </mxCell>
        <mxCell id="FcZPNLN2SZ12-Trmu3FX-343" value="" style="shape=cube;whiteSpace=wrap;html=1;boundedLbl=1;backgroundOutline=1;darkOpacity=0.05;darkOpacity2=0.1;size=122;direction=east;flipH=0;rotation=90;fillColor=#FF0000;" vertex="1" parent="FcZPNLN2SZ12-Trmu3FX-352">
          <mxGeometry x="36.588631700066344" y="-5.196931760738266" width="6.73675737460664" height="17.13062089608294" as="geometry" />
        </mxCell>
        <mxCell id="FcZPNLN2SZ12-Trmu3FX-344" value="" style="shape=cube;whiteSpace=wrap;html=1;boundedLbl=1;backgroundOutline=1;darkOpacity=0.05;darkOpacity2=0.1;size=122;direction=east;flipH=0;rotation=90;fillColor=#FF0000;" vertex="1" parent="FcZPNLN2SZ12-Trmu3FX-352">
          <mxGeometry x="85.59045258476476" y="-5.178014543132349" width="6.73675737460664" height="17.13062089608294" as="geometry" />
        </mxCell>
        <mxCell id="FcZPNLN2SZ12-Trmu3FX-345" value="" style="shape=cube;whiteSpace=wrap;html=1;boundedLbl=1;backgroundOutline=1;darkOpacity=0.05;darkOpacity2=0.1;size=13;direction=east;flipH=0;rotation=90;fillColor=#FF0000;" vertex="1" parent="FcZPNLN2SZ12-Trmu3FX-352">
          <mxGeometry x="5.56670283517974" y="26.791091687225617" width="6.73675737460664" height="17.13062089608294" as="geometry" />
        </mxCell>
        <mxCell id="FcZPNLN2SZ12-Trmu3FX-346" value="" style="shape=cube;whiteSpace=wrap;html=1;boundedLbl=1;backgroundOutline=1;darkOpacity=0.05;darkOpacity2=0.1;size=13;direction=east;flipH=0;rotation=90;fillColor=#FF0000;" vertex="1" parent="FcZPNLN2SZ12-Trmu3FX-352">
          <mxGeometry x="54.13796471660021" y="26.791091687225617" width="6.73675737460664" height="17.13062089608294" as="geometry" />
        </mxCell>
        <mxCell id="FcZPNLN2SZ12-Trmu3FX-347" value="" style="shape=cube;whiteSpace=wrap;html=1;boundedLbl=1;backgroundOutline=1;darkOpacity=0.05;darkOpacity2=0.1;size=13;direction=east;flipH=0;rotation=90;fillColor=#FF0000;" vertex="1" parent="FcZPNLN2SZ12-Trmu3FX-352">
          <mxGeometry x="30.91637133083782" y="26.791091687225617" width="6.73675737460664" height="17.13062089608294" as="geometry" />
        </mxCell>
        <mxCell id="FcZPNLN2SZ12-Trmu3FX-348" value="" style="shape=cube;whiteSpace=wrap;html=1;boundedLbl=1;backgroundOutline=1;darkOpacity=0.05;darkOpacity2=0.1;size=13;direction=east;flipH=0;rotation=90;fillColor=#FF0000;" vertex="1" parent="FcZPNLN2SZ12-Trmu3FX-352">
          <mxGeometry x="61.27271853822958" y="-5.196931760738039" width="6.73675737460664" height="17.13062089608294" as="geometry" />
        </mxCell>
        <mxCell id="FcZPNLN2SZ12-Trmu3FX-349" value="" style="shape=cube;whiteSpace=wrap;html=1;boundedLbl=1;backgroundOutline=1;darkOpacity=0.05;darkOpacity2=0.1;size=13;direction=east;flipH=0;rotation=90;fillColor=#FF0000;" vertex="1" parent="FcZPNLN2SZ12-Trmu3FX-352">
          <mxGeometry x="20.95935459097882" y="10.77319091280549" width="6.73675737460664" height="17.13062089608294" as="geometry" />
        </mxCell>
        <mxCell id="FcZPNLN2SZ12-Trmu3FX-350" value="" style="shape=cube;whiteSpace=wrap;html=1;boundedLbl=1;backgroundOutline=1;darkOpacity=0.05;darkOpacity2=0.1;size=13;direction=east;flipH=0;rotation=90;fillColor=#FF0000;" vertex="1" parent="FcZPNLN2SZ12-Trmu3FX-352">
          <mxGeometry x="69.61599987899626" y="10.77319091280549" width="6.73675737460664" height="17.13062089608294" as="geometry" />
        </mxCell>
        <mxCell id="FcZPNLN2SZ12-Trmu3FX-351" value="" style="shape=cube;whiteSpace=wrap;html=1;boundedLbl=1;backgroundOutline=1;darkOpacity=0.05;darkOpacity2=0.1;size=13;direction=east;flipH=0;rotation=90;fillColor=#FF0000;" vertex="1" parent="FcZPNLN2SZ12-Trmu3FX-352">
          <mxGeometry x="45.37397113415773" y="10.77319091280549" width="6.73675737460664" height="17.13062089608294" as="geometry" />
        </mxCell>
        <mxCell id="FcZPNLN2SZ12-Trmu3FX-357" value="" style="shape=cube;whiteSpace=wrap;html=1;boundedLbl=1;backgroundOutline=1;darkOpacity=0.05;darkOpacity2=0.1;size=110;direction=east;flipH=0;rotation=90;fillColor=#dae8fc;strokeColor=#6c8ebf;" vertex="1" parent="1">
          <mxGeometry x="2180" y="990" width="121.5" height="399" as="geometry" />
        </mxCell>
        <mxCell id="FcZPNLN2SZ12-Trmu3FX-361" value="" style="shape=cube;whiteSpace=wrap;html=1;boundedLbl=1;backgroundOutline=1;darkOpacity=0.05;darkOpacity2=0.1;size=110;direction=east;flipH=0;rotation=90;fillColor=#dae8fc;strokeColor=#6c8ebf;" vertex="1" parent="1">
          <mxGeometry x="2180" y="791.69" width="121.5" height="399" as="geometry" />
        </mxCell>
        <mxCell id="FcZPNLN2SZ12-Trmu3FX-362" value="" style="shape=cube;whiteSpace=wrap;html=1;boundedLbl=1;backgroundOutline=1;darkOpacity=0.05;darkOpacity2=0.1;size=110;direction=east;flipH=0;rotation=90;fillColor=#dae8fc;strokeColor=#6c8ebf;" vertex="1" parent="1">
          <mxGeometry x="2180" y="780.19" width="121.5" height="399" as="geometry" />
        </mxCell>
        <mxCell id="FcZPNLN2SZ12-Trmu3FX-363" value="" style="shape=cube;whiteSpace=wrap;html=1;boundedLbl=1;backgroundOutline=1;darkOpacity=0.05;darkOpacity2=0.1;size=110;direction=east;flipH=0;rotation=90;fillColor=#dae8fc;strokeColor=#6c8ebf;" vertex="1" parent="1">
          <mxGeometry x="2180" y="768.38" width="121.5" height="399" as="geometry" />
        </mxCell>
        <mxCell id="FcZPNLN2SZ12-Trmu3FX-364" value="" style="shape=cube;whiteSpace=wrap;html=1;boundedLbl=1;backgroundOutline=1;darkOpacity=0.05;darkOpacity2=0.1;size=110;direction=east;flipH=0;rotation=90;fillColor=#dae8fc;strokeColor=#6c8ebf;" vertex="1" parent="1">
          <mxGeometry x="2180" y="756.44" width="121.5" height="399" as="geometry" />
        </mxCell>
        <mxCell id="FcZPNLN2SZ12-Trmu3FX-365" value="" style="shape=singleArrow;whiteSpace=wrap;html=1;strokeColor=#330000;fontSize=17;fillColor=#330000;gradientColor=none;" vertex="1" parent="1">
          <mxGeometry x="1510" y="1170" width="76" height="40" as="geometry" />
        </mxCell>
      </root>
    </mxGraphModel>
  </diagram>
</mxfile>
